HIERARCHY
ROOT reference
{
  OFFSET 0 0 0
  CHANNELS 6 Xposition Yposition Zposition Zrotation Xrotation Yrotation
  JOINT Hips
  {
    OFFSET 8.5582 81.7242 64.3883
    CHANNELS 6 Xposition Yposition Zposition Zrotation Xrotation Yrotation
    JOINT Spine
    {
      OFFSET 0 8.25043 0
      CHANNELS 6 Xposition Yposition Zposition Zrotation Xrotation Yrotation
      JOINT Spine1
      {
        OFFSET 0 26.9735 0
        CHANNELS 6 Xposition Yposition Zposition Zrotation Xrotation Yrotation
        JOINT Neck
        {
          OFFSET 0 26.8627 2.44206
          CHANNELS 6 Xposition Yposition Zposition Zrotation Xrotation Yrotation
          JOINT Head
          {
            OFFSET 0 14.0861 -2.0123
            CHANNELS 6 Xposition Yposition Zposition Zrotation Xrotation Yrotation
            End Site
            {
              OFFSET 0 25.1537 0
            }
          }
        }
        JOINT LeftShoulder
        {
          OFFSET 4.03461 23.8974 -0.31355
          CHANNELS 6 Xposition Yposition Zposition Zrotation Xrotation Yrotation
          JOINT LeftArm
          {
            OFFSET 14.6104 0 0
            CHANNELS 6 Xposition Yposition Zposition Zrotation Xrotation Yrotation
            JOINT LeftForeArm
            {
              OFFSET 28.8903 0 0
              CHANNELS 6 Xposition Yposition Zposition Zrotation Xrotation Yrotation
              JOINT LeftHand
              {
                OFFSET 28.8168 0 0
                CHANNELS 6 Xposition Yposition Zposition Zrotation Xrotation Yrotation
                End Site
                {
                  OFFSET 15.0922 0 0
                }
              }
            }
          }
        }
        JOINT RightShoulder
        {
          OFFSET -4.01401 23.8974 -0.31355
          CHANNELS 6 Xposition Yposition Zposition Zrotation Xrotation Yrotation
          JOINT RightArm
          {
            OFFSET -14.6104 0 0
            CHANNELS 6 Xposition Yposition Zposition Zrotation Xrotation Yrotation
            JOINT RightForeArm
            {
              OFFSET -28.8903 0 0
              CHANNELS 6 Xposition Yposition Zposition Zrotation Xrotation Yrotation
              JOINT RightHand
              {
                OFFSET -28.8168 0 0
                CHANNELS 6 Xposition Yposition Zposition Zrotation Xrotation Yrotation
                End Site
                {
                  OFFSET -15.0922 0 0
                }
              }
            }
          }
        }
      }
    }
    JOINT LeftUpLeg
    {
      OFFSET 10.0615 0 0
      CHANNELS 6 Xposition Yposition Zposition Zrotation Xrotation Yrotation
      JOINT LeftLeg
      {
        OFFSET 0 -36.0896 0
        CHANNELS 6 Xposition Yposition Zposition Zrotation Xrotation Yrotation
        JOINT LeftFoot
        {
          OFFSET 0 -47.1136 0
          CHANNELS 6 Xposition Yposition Zposition Zrotation Xrotation Yrotation
          JOINT LeftToeBase
          {
            OFFSET 0 -6.53997 15.0922
            CHANNELS 6 Xposition Yposition Zposition Zrotation Xrotation Yrotation
            End Site
            {
              OFFSET 0 0 4.0246
            }
          }
        }
      }
    }
    JOINT RightUpLeg
    {
      OFFSET -10.0615 0 0
      CHANNELS 6 Xposition Yposition Zposition Zrotation Xrotation Yrotation
      JOINT RightLeg
      {
        OFFSET 0 -36.0896 0
        CHANNELS 6 Xposition Yposition Zposition Zrotation Xrotation Yrotation
        JOINT RightFoot
        {
          OFFSET 0 -47.1136 0
          CHANNELS 6 Xposition Yposition Zposition Zrotation Xrotation Yrotation
          JOINT RightToeBase
          {
            OFFSET 0 -6.53997 15.0922
            CHANNELS 6 Xposition Yposition Zposition Zrotation Xrotation Yrotation
            End Site
            {
              OFFSET 0 0 4.0246
            }
          }
        }
      }
    }
  }
}
MOTION
Frames:	4
Frame Time:	0.004
0 0 0 0 0 -0 -4.22793 82.4534 -211.507 -0.448348 -3.12329 2.68427 0 8.25043 0 -2.00436 -2.50382 0.734422 1.77636e-015 26.9735 -2.84217e-014 -1.75346 -2.91191 0.733649 0 26.8627 2.44206 8.27228 22.8833 9.94313 0 14.0861 -2.0123 -8.67922 3.12604 9.88934 4.03461 23.8974 -0.31355 19.0958 -1.92331 -0.853904 14.6104 -2.84217e-014 2.84217e-014 -21.9234 -5.15295 -2.88865 28.8903 -2.84217e-014 2.84217e-014 -2.7267 6.95546 1.46534 28.8168 0 -2.84217e-014 23.8602 6.58425 -1.93334 -4.01401 23.8974 -0.31355 -14.9788 -0.623265 1.99015 -14.6104 0 0 17.8467 7.12388 2.74163 -28.8903 2.84217e-014 2.84217e-014 -9.85054 -3.43853 0.130401 -28.8168 2.84217e-014 0 -8.14034 -2.84889 -8.12771 10.0615 0 2.84217e-014 2.0059 2.98366 -6.37796 1.77636e-015 -36.0896 0 -5.37367 11.5257 -16.7403 0 -47.1136 2.84217e-014 17.174 -12.187 36.2322 0 -6.53997 15.0922 1.98785e-016 7.95139e-016 -0 -10.0615 -1.42109e-014 0 -2.58503 3.88756 5.81134 7.10543e-015 -36.0896 0 0.294501 -4.29289 50.5176 0 -47.1136 1.42109e-014 1.97414 3.45988 -56.0741 -1.77636e-015 -6.53997 15.0922 7.56314e-016 7.45443e-017 -0 
0 0 0 0 0 -0 -4.22793 82.4534 -211.507 -0.448286 -3.13983 2.6713 0 8.25043 0 -0.979164 -4.38357 -0.139793 0 26.9735 0 -2.97472 2.25025 -0.043761 8.88178e-016 26.8627 2.44206 8.27228 22.8833 9.94313 7.10543e-015 14.0861 -2.0123 -8.67922 3.12604 9.88934 4.03461 23.8974 -0.31355 19.0958 -1.92331 -0.853904 14.6104 2.84217e-014 0 -21.9234 -5.15295 -2.88865 28.8903 0 0 -2.7267 6.95546 1.46534 28.8168 0 0 23.8602 6.58425 -1.93334 -4.01401 23.8974 -0.31355 -17.7609 -3.90791 1.58716 -14.6104 0 0 17.8467 7.12388 2.74163 -28.8903 -2.84217e-014 0 -9.85054 -3.43853 0.130401 -28.8168 0 -2.84217e-014 -8.14034 -2.84889 -8.12771 10.0615 1.42109e-014 0 2.0078 3.0056 -6.36766 8.88178e-016 -36.0896 0 -5.36914 11.5243 -16.7629 0 -47.1136 0 17.1768 -12.1851 36.2452 0 -6.53997 15.0922 -1.98785e-016 -3.18055e-015 -0 -10.0615 0 0 -2.58456 3.88761 5.80448 0 -36.0896 2.84217e-014 0.294501 -4.29289 50.5176 0 -47.1136 0 1.97414 3.45988 -56.0741 -1.77636e-015 -6.53997 15.0922 -5.03174e-016 1.2424e-017 -0 
0 0 0 0 0 -0 -4.22793 82.4534 -211.507 -0.448483 -3.13511 2.67172 8.88178e-016 8.25043 2.84217e-014 -2.00193 -2.48051 0.740828 0 26.9735 0 -1.75851 -2.91755 0.739463 0 26.8627 2.44206 8.27463 22.868 9.9434 0 14.0861 -2.0123 -8.71472 3.13982 9.88579 4.03461 23.8974 -0.31355 19.0951 -1.9233 -0.875131 14.6104 2.84217e-014 -2.84217e-014 -21.9078 -5.1361 -2.86522 28.8903 2.84217e-014 -2.84217e-014 -2.72603 6.98848 1.46544 28.8168 0 2.84217e-014 23.8086 6.61488 -1.94996 -4.01401 23.8974 -0.31355 -14.9715 -0.636016 1.98914 -14.6104 0 0 17.8223 7.05287 2.74121 -28.8903 -2.84217e-014 2.84217e-014 -9.8301 -3.47352 0.080492 -28.8168 2.84217e-014 2.84217e-014 -7.9624 -2.93423 -7.65004 10.0615 1.42109e-014 0 2.00695 2.99679 -6.37026 1.77636e-015 -36.0896 -2.84217e-014 -5.37613 11.5264 -16.728 0 -47.1136 0 17.188 -12.1872 36.2313 -7.10543e-015 -6.53997 15.0922 -1.39149e-015 7.95139e-016 -1.59028e-015 -10.0615 0 2.84217e-014 -2.58383 3.88768 5.79363 -3.55271e-015 -36.0896 0 0.301447 -4.2764 50.5161 0 -47.1136 0 1.97414 3.45988 -56.0741 3.55271e-015 -6.53997 15.0922 -8.60365e-016 4.96962e-017 -7.95139e-016 
0 0 0 0 0 -0 -4.22618 82.4534 -211.509 -0.44805 -3.1486 2.66817 1.77636e-015 8.25043 -2.84217e-014 -2.01042 -2.46108 0.742169 -1.77636e-015 26.9735 -2.84217e-014 -1.74414 -2.92404 0.740849 -1.77636e-015 26.8627 2.44206 8.27401 22.7774 9.9695 0 14.0861 -2.0123 -8.71862 3.29381 9.91686 4.03461 23.8974 -0.31355 19.0944 -1.92329 -0.894982 14.6104 0 0 -21.9166 -5.10507 -2.84124 28.8903 0 0 -2.70779 6.97643 1.45271 28.8168 0 0 23.8085 6.60144 -1.95403 -4.01401 23.8974 -0.31355 -14.9763 -0.6246 1.98657 -14.6104 -5.68434e-014 0 17.8138 7.03432 2.7411 -28.8903 -2.84217e-014 0 -9.82276 -3.46187 0.079723 -28.8168 0 0 -7.96478 -2.92206 -7.65634 10.0615 0 0 2.00799 3.00845 -6.36532 -8.88178e-016 -36.0896 0 -5.37434 11.5259 -16.7369 0 -47.1136 -2.84217e-014 17.188 -12.198 36.2285 -7.10543e-015 -6.53997 15.0922 -3.97569e-016 0 -0 -10.0615 1.42109e-014 0 -2.58423 3.88764 5.79964 3.55271e-015 -36.0896 0 0.293747 -4.26911 50.5081 -2.84217e-014 -47.1136 0 1.97414 3.45988 -56.0741 0 -6.53997 15.0922 -6.25861e-016 -4.96962e-017 -3.97569e-016 
